<svg width="18" height="18" viewBox="0 0 18 18" fill="none" xmlns="http://www.w3.org/2000/svg">
<path d="M12.8542 11H12.0971L11.8287 10.73C12.7679 9.59 13.3333 8.11 13.3333 6.5C13.3333 2.91 10.5446 0 7.10417 0C3.66375 0 0.875 2.91 0.875 6.5C0.875 10.09 3.66375 13 7.10417 13C8.64708 13 10.0654 12.41 11.1579 11.43L11.4167 11.71V12.5L16.2083 17.49L17.6362 16L12.8542 11ZM7.10417 11C4.71792 11 2.79167 8.99 2.79167 6.5C2.79167 4.01 4.71792 2 7.10417 2C9.49042 2 11.4167 4.01 11.4167 6.5C11.4167 8.99 9.49042 11 7.10417 11Z" fill="#F2F2F2"/>
</svg>
