<svg width="12" height="11" viewBox="0 0 12 11" fill="none" xmlns="http://www.w3.org/2000/svg">
<path d="M0.670536 6.27218L9.52153 6.27218L7.57699 9.02127C7.30878 9.40046 7.30878 9.96924 7.57699 10.3484C7.8452 10.7276 8.24752 10.7276 8.51573 10.3484L11.6002 5.98779C11.8684 5.60861 11.8684 5.03983 11.6002 4.66064L8.51574 0.300014C8.24752 -0.0791716 7.84521 -0.0791717 7.57699 0.300014C7.30878 0.679199 7.30878 1.24798 7.57699 1.62716L9.52153 4.37626L0.670536 4.37625C0.335271 4.37625 6.08549e-06 4.75544 6.05032e-06 5.32422C6.01514e-06 5.893 0.335271 6.27218 0.670536 6.27218Z" fill="white"/>
</svg>
