<svg width="87" height="23" viewBox="0 0 87 23" fill="none" xmlns="http://www.w3.org/2000/svg">
<path d="M0.896 17V0.079999H3.608L9.824 14.072H9.08L15.296 0.079999H17.984V17H15.176V4.448H16.04L10.352 17H8.504L2.816 4.448H3.704V17H0.896ZM21.2748 22.448L20.5788 20.072C21.3308 19.912 21.9628 19.728 22.4748 19.52C22.9868 19.312 23.4108 19.04 23.7468 18.704C24.0828 18.368 24.3628 17.936 24.5868 17.408L25.1868 15.992L25.1148 17.168L19.8348 4.88H23.0268L26.8188 14.336H26.1228L29.9388 4.88H32.9628L27.4428 17.672C27.0748 18.536 26.6748 19.248 26.2428 19.808C25.8108 20.384 25.3468 20.84 24.8508 21.176C24.3548 21.528 23.8108 21.8 23.2188 21.992C22.6268 22.184 21.9788 22.336 21.2748 22.448ZM39.5 17L47.156 0.079999H49.748L57.5 17H54.356L52.292 12.248L53.54 13.088H43.388L44.684 12.248L42.62 17H39.5ZM48.428 3.392L45.044 11.408L44.42 10.664H52.484L51.98 11.408L48.524 3.392H48.428ZM59.132 22.184V7.904C59.132 7.408 59.116 6.904 59.084 6.392C59.052 5.88 59.004 5.376 58.94 4.88H61.844L62.108 7.424H61.844C62.084 6.576 62.588 5.904 63.356 5.408C64.14 4.896 65.044 4.64 66.068 4.64C67.14 4.64 68.076 4.896 68.876 5.408C69.676 5.904 70.3 6.624 70.748 7.568C71.196 8.496 71.42 9.616 71.42 10.928C71.42 12.24 71.196 13.368 70.748 14.312C70.3 15.256 69.676 15.984 68.876 16.496C68.076 16.992 67.14 17.24 66.068 17.24C65.06 17.24 64.172 16.992 63.404 16.496C62.636 16 62.124 15.336 61.868 14.504H62.132V22.184H59.132ZM65.228 14.936C66.188 14.936 66.956 14.608 67.532 13.952C68.108 13.28 68.396 12.272 68.396 10.928C68.396 9.584 68.108 8.584 67.532 7.928C66.956 7.272 66.188 6.944 65.228 6.944C64.284 6.944 63.524 7.272 62.948 7.928C62.372 8.584 62.084 9.584 62.084 10.928C62.084 12.272 62.372 13.28 62.948 13.952C63.524 14.608 64.284 14.936 65.228 14.936ZM74.0148 22.184V7.904C74.0148 7.408 73.9988 6.904 73.9668 6.392C73.9348 5.88 73.8868 5.376 73.8228 4.88H76.7268L76.9908 7.424H76.7268C76.9668 6.576 77.4708 5.904 78.2388 5.408C79.0228 4.896 79.9268 4.64 80.9508 4.64C82.0228 4.64 82.9588 4.896 83.7588 5.408C84.5588 5.904 85.1828 6.624 85.6308 7.568C86.0788 8.496 86.3028 9.616 86.3028 10.928C86.3028 12.24 86.0788 13.368 85.6308 14.312C85.1828 15.256 84.5588 15.984 83.7588 16.496C82.9588 16.992 82.0228 17.24 80.9508 17.24C79.9428 17.24 79.0548 16.992 78.2868 16.496C77.5188 16 77.0068 15.336 76.7508 14.504H77.0148V22.184H74.0148ZM80.1108 14.936C81.0708 14.936 81.8388 14.608 82.4148 13.952C82.9908 13.28 83.2788 12.272 83.2788 10.928C83.2788 9.584 82.9908 8.584 82.4148 7.928C81.8388 7.272 81.0708 6.944 80.1108 6.944C79.1668 6.944 78.4068 7.272 77.8308 7.928C77.2548 8.584 76.9668 9.584 76.9668 10.928C76.9668 12.272 77.2548 13.28 77.8308 13.952C78.4068 14.608 79.1668 14.936 80.1108 14.936Z" fill="white"/>
</svg>
